<?xml version="1.0" encoding="UTF-8"?>
<svg width="185px" height="186px" viewBox="0 0 185 186" version="1.1" xmlns="http://www.w3.org/2000/svg" xmlns:xlink="http://www.w3.org/1999/xlink">
    <title>Outlined/UI/settings Copy</title>
    <defs>
        <filter x="-41.4%" y="-19.0%" width="182.8%" height="139.6%" filterUnits="objectBoundingBox" id="filter-1">
            <feOffset dx="0" dy="8" in="SourceAlpha" result="shadowOffsetOuter1"></feOffset>
            <feGaussianBlur stdDeviation="26" in="shadowOffsetOuter1" result="shadowBlurOuter1"></feGaussianBlur>
            <feColorMatrix values="0 0 0 0 0   0 0 0 0 0   0 0 0 0 0  0 0 0 0.1 0" type="matrix" in="shadowBlurOuter1" result="shadowMatrixOuter1"></feColorMatrix>
            <feMerge>
                <feMergeNode in="shadowMatrixOuter1"></feMergeNode>
                <feMergeNode in="SourceGraphic"></feMergeNode>
            </feMerge>
        </filter>
    </defs>
    <g id="Welcome" stroke="none" stroke-width="1" fill="none" fill-rule="evenodd" opacity="0.42347136">
        <g id="Desktop-HD" transform="translate(-1045.000000, -4157.000000)" fill="#FFFFFF">
            <g id="iPhone_X-Copy" filter="url(#filter-1)" transform="translate(874.000000, 4107.000000)">
                <g id="~SCREEN-HERE~" transform="translate(8.606178, 9.605948)">
                    <g id="Group-2" transform="translate(-7.000000, 0.000000)">
                        <g id="Outlined/UI/settings-Copy" transform="translate(254.866841, 126.324130)">
                            <path d="M7.28000021,0 C8.09840689,0 8.76427501,0.648738616 8.77285969,1.45455496 L8.77285969,1.45455496 L8.77285969,2.30261705 C9.2642862,2.4941103 9.7235727,2.75748713 10.1352245,3.08386212 L10.1352245,3.08386212 L10.8555553,2.6726805 C11.5644085,2.26750931 12.4722319,2.49612994 12.8964925,3.18665752 L12.8964925,3.18665752 L13.3819328,4.01416052 C13.5802861,4.35213442 13.6339745,4.75391437 13.5311597,5.13090785 C13.4283449,5.50790134 13.1774708,5.82914719 12.8338551,6.02381067 L12.8338551,6.02381067 L12.1135243,6.42985251 C12.1959351,6.94062661 12.1959351,7.46100947 12.1135243,7.97178357 L12.1135243,7.97178357 L12.8338551,8.37782542 C13.5445629,8.7869366 13.7888922,9.68282466 13.3819328,10.3874756 L13.3819328,10.3874756 L12.8964925,11.2149786 C12.6987984,11.5533267 12.3725513,11.800355 11.9896886,11.9015937 C11.6068259,12.0028323 11.1987909,11.949967 10.8555553,11.7546544 L10.8555553,11.7546544 L10.1352245,11.3434728 C9.7235727,11.6698478 9.2642862,11.9332246 8.77285969,12.1247179 L8.77285969,12.1247179 L8.77285969,12.9213823 C8.77285969,13.7332266 8.10448374,14.3913565 7.28000021,14.3913565 L7.28000021,14.3913565 L6.30911957,14.3913565 C5.4866702,14.3913565 4.81913579,13.7363585 4.81626009,12.926522 L4.81626009,12.926522 L4.81626009,12.1144383 C4.32483358,11.9229451 3.86554708,11.6595683 3.45389532,11.3331933 L3.45389532,11.3331933 L2.73356452,11.7443749 C2.0179433,12.1450956 1.10810766,11.9045119 0.692627256,11.204699 L0.692627256,11.204699 L0.207186936,10.377196 C-0.210347472,9.68004658 0.02298417,8.78170563 0.729165775,8.36754588 L0.729165775,8.36754588 L1.44949657,7.96150403 C1.36708575,7.45072993 1.36708575,6.93034707 1.44949657,6.41957297 L1.44949657,6.41957297 L0.729165775,6.01353113 C0.0278877579,5.59577432 -0.204292139,4.70186765 0.207186936,4.00388098 L0.207186936,4.00388098 L0.692627256,3.15067913 C1.11323483,2.45532313 2.02556155,2.22556841 2.73356452,2.63670211 L2.73356452,2.63670211 L3.45389532,3.04788372 C3.86554708,2.72150874 4.32483358,2.45813191 4.81626009,2.26663866 L4.81626009,2.26663866 L4.81626009,1.46997428 C4.81626009,0.6581299 5.48463604,0 6.30911957,0 L6.30911957,0 Z M7.28000021,1.02795402 L6.30911957,1.02795402 C6.18823236,1.02795402 6.07244139,1.07590013 5.98794934,1.16103175 C5.90345728,1.24616337 5.85740643,1.36125197 5.86021777,1.48025382 L5.86021777,1.48025382 L5.86021777,3.02218487 L5.49483258,3.13525982 C4.88881707,3.32557032 4.33279432,3.64494476 3.8662586,4.07069799 L3.8662586,4.07069799 L3.58439003,4.32254673 L2.21158568,3.54130166 C1.9967273,3.4213581 1.7238271,3.49485327 1.60087044,3.70577431 L1.60087044,3.70577431 L1.11543012,4.53327731 C1.05482743,4.63474316 1.0378298,4.75582009 1.06820503,4.86966947 C1.09858026,4.98351885 1.17381906,5.08073564 1.27724356,5.13977019 L1.27724356,5.13977019 L2.64482812,5.88503687 L2.56653129,6.25510033 C2.49452367,6.55840293 2.45774927,6.86878 2.45691573,7.18025896 C2.45839199,7.49141254 2.49338639,7.80153404 2.5613115,8.1054176 L2.5613115,8.1054176 L2.64482812,8.47548105 L1.27724356,9.25158635 C1.16944582,9.31057015 1.09103932,9.41062433 1.06043263,9.52825777 C1.02982594,9.64589122 1.04971498,9.7707425 1.11543012,9.87349854 L1.11543012,9.87349854 L1.60087044,10.7010015 C1.65930477,10.8029268 1.75726184,10.8771233 1.87229943,10.9065924 C1.98651687,10.9369239 2.10824625,10.9221715 2.21158568,10.8654742 L2.21158568,10.8654742 L3.58439003,10.0842291 L3.8662586,10.3360779 C4.33279432,10.7618311 4.88881707,11.0812055 5.49483258,11.271516 L5.49483258,11.271516 L5.86021777,11.384591 L5.86021777,12.926522 C5.86021777,13.1706431 6.06119795,13.3685423 6.30911957,13.3685423 L6.30911957,13.3685423 L7.30609915,13.3685423 C7.55402077,13.3685423 7.75500096,13.1706431 7.75500096,12.926522 L7.75500096,12.926522 L7.75500096,11.384591 L8.12038614,11.271516 C8.72640165,11.0812055 9.2824244,10.7618311 9.74896012,10.3360779 L9.74896012,10.3360779 L10.0308287,10.0842291 L11.403633,10.8654742 C11.6184914,10.9854178 11.8913916,10.9119226 12.0143483,10.7010015 L12.0143483,10.7010015 L12.4736897,9.87349854 C12.5394048,9.7707425 12.5592938,9.64589122 12.5286872,9.52825777 C12.4980805,9.41062433 12.419674,9.31057015 12.3118762,9.25158635 L12.3118762,9.25158635 L10.9703906,8.49090036 L11.0486874,8.12083691 C11.1206951,7.8175343 11.1574695,7.50715723 11.158303,7.19567827 C11.1568267,6.88452469 11.1218323,6.57440319 11.0539072,6.27051964 L11.0539072,6.27051964 L10.9703906,5.90045618 L12.3118762,5.13977019 C12.4181957,5.08074933 12.4955252,4.98164489 12.526053,4.86528432 C12.5565808,4.74892374 12.5376748,4.62533955 12.4736897,4.52299777 L12.4736897,4.52299777 L11.9882493,3.69549477 C11.929815,3.5935695 11.8318579,3.51937303 11.7168203,3.48990396 C11.6026029,3.45957238 11.4808735,3.47432479 11.3775341,3.53102212 L11.3775341,3.53102212 L10.0047298,4.31226719 L9.72286118,4.06041845 C9.25632546,3.63466522 8.70030271,3.31529078 8.0942872,3.12498028 L8.0942872,3.12498028 L7.72890201,3.01190533 L7.72890201,1.46997428 C7.72890201,1.22585324 7.52792183,1.02795402 7.28000021,1.02795402 L7.28000021,1.02795402 Z M6.79455989,5.13977019 C7.9476837,5.13977019 8.88247525,6.06023159 8.88247525,7.19567827 C8.88247525,8.33112495 7.9476837,9.25158635 6.79455989,9.25158635 C5.64143608,9.25158635 4.70664453,8.33112495 4.70664453,7.19567827 C4.70664453,6.06023159 5.64143608,5.13977019 6.79455989,5.13977019 Z M6.79455989,6.16772423 C6.21799798,6.16772423 5.75060221,6.62795493 5.75060221,7.19567827 C5.75060221,7.76340161 6.21799798,8.22363231 6.79455989,8.22363231 C7.3711218,8.22363231 7.83851757,7.76340161 7.83851757,7.19567827 C7.83851757,6.62795493 7.3711218,6.16772423 6.79455989,6.16772423 Z" id="Style"></path>
                        </g>
                    </g>
                </g>
            </g>
        </g>
    </g>
</svg>