<?xml version="1.0" encoding="UTF-8"?>
<svg width="153px" height="154px" viewBox="0 0 153 154" version="1.1" xmlns="http://www.w3.org/2000/svg" xmlns:xlink="http://www.w3.org/1999/xlink">
    <title>129 copy</title>
    <defs>
        <filter x="-41.3%" y="-19.1%" width="182.6%" height="139.8%" filterUnits="objectBoundingBox" id="filter-1">
            <feOffset dx="0" dy="7" in="SourceAlpha" result="shadowOffsetOuter1"></feOffset>
            <feGaussianBlur stdDeviation="21.5" in="shadowOffsetOuter1" result="shadowBlurOuter1"></feGaussianBlur>
            <feColorMatrix values="0 0 0 0 0   0 0 0 0 0   0 0 0 0 0  0 0 0 0.1 0" type="matrix" in="shadowBlurOuter1" result="shadowMatrixOuter1"></feColorMatrix>
            <feMerge>
                <feMergeNode in="shadowMatrixOuter1"></feMergeNode>
                <feMergeNode in="SourceGraphic"></feMergeNode>
            </feMerge>
        </filter>
    </defs>
    <g id="Welcome" stroke="none" stroke-width="1" fill="none" fill-rule="evenodd">
        <g id="Desktop-HD" transform="translate(-331.000000, -2643.000000)" fill="#F0BB75" fill-rule="nonzero">
            <g id="iPhone_X" filter="url(#filter-1)" transform="translate(359.000000, 2271.000000)">
                <g id="~SCREEN-HERE~" transform="translate(8.000000, 8.000000)">
                    <g id="Group-4" transform="translate(-5.056818, -5.026315)">
                        <g id="129-copy" transform="translate(40.090559, 440.490559)">
                            <path d="M6.68175976,3.31694698 C6.68175976,2.5853091 6.08225924,1.99016819 5.34540781,1.99016819 C4.60855637,1.99016819 4.00905585,2.5853091 4.00905585,3.31694698 C4.00905585,4.04846698 4.60855637,4.64372577 5.34540781,4.64372577 C6.08225924,4.64372577 6.68175976,4.04846698 6.68175976,3.31694698 Z M4.38703796,3.31694698 C4.38703796,2.79229414 4.81689764,2.36535803 5.34540781,2.36535803 C5.87391797,2.36535803 6.30377765,2.79229414 6.30377765,3.31694698 C6.30377765,3.84159982 5.87391797,4.26841805 5.34540781,4.26841805 C4.81689764,4.26841805 4.38703796,3.84159982 4.38703796,3.31694698 Z" id="Shape"></path>
                            <path d="M10.6629365,9.84988781 L10.2305134,8.3840626 L9.74633596,6.74322053 C9.66608623,6.47043481 9.37358265,6.25708878 9.08083552,6.25708878 L7.28964688,6.25708878 C7.95380779,5.27303169 8.59921535,4.07916665 8.59921535,3.15112911 C8.59921535,1.41357961 7.13949829,0 5.34538704,0 C3.5512758,0 2.09155873,1.41357961 2.09155873,3.15112911 C2.09155873,4.07904872 2.73708807,5.27303169 3.40112721,6.25697084 L1.60993856,6.25697084 C1.31706966,6.25697084 1.02468786,6.47043481 0.944438123,6.74310259 L0.460382452,8.3840626 L0.0279593857,9.84988781 C-0.0295184198,10.0446 0.00250840825,10.2396659 0.115880944,10.3851988 C0.22900993,10.5306138 0.414107947,10.6142303 0.623317417,10.6142303 L10.0675784,10.6142303 C10.2767879,10.6142303 10.4616424,10.5306138 10.5750149,10.3854347 C10.6882657,10.2397839 10.7202925,10.0448358 10.6629365,9.84988781 Z M2.47941214,3.15112911 C2.47941214,1.6205571 3.76499094,0.375389946 5.34538704,0.375389946 C6.92578314,0.375389946 8.21136194,1.6205571 8.21136194,3.15112911 C8.21136194,4.88360738 5.59526936,7.82834868 5.56884419,7.85771471 C5.4469474,7.99404861 5.24394846,7.99428448 5.12180812,7.85771471 C5.09538294,7.82834868 2.47941214,4.88455086 2.47941214,3.15112911 Z M10.2653411,10.1592337 C10.2255206,10.2106537 10.1552564,10.2388404 10.0674567,10.2388404 L0.623317417,10.2388404 C0.535395859,10.2388404 0.465253452,10.2106537 0.425433023,10.1592337 C0.38524727,10.1078136 0.376601244,10.0344575 0.400712696,9.95296378 L0.833135762,8.48725651 L1.31719143,6.8462965 C1.35019246,6.73437534 1.4898684,6.63247873 1.61006034,6.63247873 L3.66245638,6.63247873 C4.24588046,7.44765162 4.77998566,8.04877086 4.82893922,8.10372899 C4.96484013,8.25539454 5.14811152,8.33889316 5.34538704,8.33889316 C5.54278433,8.33889316 5.72605573,8.25539454 5.86195664,8.10372899 C5.91091019,8.04877086 6.4450154,7.44765162 7.02843948,6.63247873 L9.08083552,6.63247873 C9.20102746,6.63247873 9.3407034,6.7342574 9.37358265,6.8462965 L9.85763832,8.48725651 L10.2901832,9.95296378 C10.3142946,10.0344575 10.305405,10.1078136 10.2653411,10.1592337 Z" id="Shape"></path>
                        </g>
                    </g>
                </g>
            </g>
        </g>
    </g>
</svg>