<?xml version="1.0" encoding="UTF-8"?>
<svg width="227px" height="227px" viewBox="0 0 227 227" version="1.1" xmlns="http://www.w3.org/2000/svg" xmlns:xlink="http://www.w3.org/1999/xlink">
    <title>133</title>
    <defs>
        <filter x="-43.7%" y="-20.4%" width="188.5%" height="143.1%" filterUnits="objectBoundingBox" id="filter-1">
            <feOffset dx="0" dy="11" in="SourceAlpha" result="shadowOffsetOuter1"></feOffset>
            <feGaussianBlur stdDeviation="31.5" in="shadowOffsetOuter1" result="shadowBlurOuter1"></feGaussianBlur>
            <feColorMatrix values="0 0 0 0 0   0 0 0 0 0   0 0 0 0 0  0 0 0 0.1 0" type="matrix" in="shadowBlurOuter1" result="shadowMatrixOuter1"></feColorMatrix>
            <feMerge>
                <feMergeNode in="shadowMatrixOuter1"></feMergeNode>
                <feMergeNode in="SourceGraphic"></feMergeNode>
            </feMerge>
        </filter>
    </defs>
    <g id="Welcome" stroke="none" stroke-width="1" fill="none" fill-rule="evenodd">
        <g id="Cards" transform="translate(-408.000000, -1558.000000)" fill="#979797" fill-rule="nonzero">
            <g id="iPhone_X-Copy-4" filter="url(#filter-1)" transform="translate(200.000000, 938.000000)">
                <g id="~SCREEN-HERE~" transform="translate(15.775862, 15.733240)">
                    <g id="Group-10" transform="translate(-4.000000, 7.000000)">
                        <g id="Group-9" transform="translate(0.000000, 44.105626)">
                            <g id="133" transform="translate(301.669477, 658.884041)">
                                <path d="M5.06426509,0 L2.02397707,0 C0.908070152,0 0,0.907675775 0,2.02309805 L0,5.06206567 C0,6.17748794 0.908070152,7.0849837 2.02397707,7.0849837 L5.06426509,7.0849837 C6.18017201,7.0849837 7.08824216,6.17748794 7.08824216,5.06206567 L7.08824216,2.02309805 C7.08824216,0.907675775 6.18017201,0 5.06426509,0 Z M6.5148,5.06206567 C6.5148,5.86136762 5.86409444,6.51197061 5.06426509,6.51197061 L2.02397707,6.51197061 C1.22414772,6.51197061 0.573262057,5.86154765 0.573262057,5.06206567 L0.573262057,2.02309805 C0.573262057,1.22343605 1.22396762,0.572833065 2.02397707,0.572833065 L5.06426509,0.572833065 C5.86391433,0.572833065 6.5148,1.22325603 6.5148,2.02309805 L6.5148,5.06206567 Z" id="Shape"></path>
                                <path d="M14.1851292,0 L11.1448411,0 C10.0289342,0 9.12086408,0.907675775 9.12086408,2.02309805 L9.12086408,5.06206567 C9.12086408,6.17748794 10.0289342,7.0849837 11.1448411,7.0849837 L14.1851292,7.0849837 C15.3010361,7.0849837 16.2091062,6.17748794 16.2091062,5.06206567 L16.2091062,2.02309805 C16.2091062,0.907675775 15.3010361,0 14.1851292,0 Z M15.6356641,5.06206567 C15.6356641,5.86136762 14.9851386,6.51197061 14.1849491,6.51197061 L11.1448411,6.51197061 C10.3450118,6.51197061 9.69430624,5.86154765 9.69430624,5.06206567 L9.69430624,2.02309805 C9.69430624,1.22343605 10.3448317,0.572833065 11.1448411,0.572833065 L14.1851292,0.572833065 C14.9851386,0.572833065 15.6358442,1.22325603 15.6358442,2.02309805 L15.6358442,5.06206567 L15.6356641,5.06206567 Z" id="Shape"></path>
                                <path d="M5.06426509,9.11690287 L2.02397707,9.11690287 C0.908070152,9.11690287 0,10.0245786 0,11.1400009 L0,14.1789685 C0,15.2943908 0.908070152,16.2020666 2.02397707,16.2020666 L5.06426509,16.2020666 C6.18017201,16.2020666 7.08824216,15.2943908 7.08824216,14.1789685 L7.08824216,11.1400009 C7.08824216,10.0245786 6.18017201,9.11690287 5.06426509,9.11690287 Z M6.5148,14.1789685 C6.5148,14.9784505 5.86409444,15.6290535 5.06426509,15.6290535 L2.02397707,15.6290535 C1.22414772,15.6290535 0.573262057,14.9786305 0.573262057,14.1789685 L0.573262057,11.1400009 C0.573262057,10.3403389 1.22396762,9.69009598 2.02397707,9.69009598 L5.06426509,9.69009598 C5.86391433,9.69009598 6.5148,10.3401589 6.5148,11.1400009 L6.5148,14.1789685 Z" id="Shape"></path>
                                <path d="M14.1851292,9.11690287 L11.1448411,9.11690287 C10.0289342,9.11690287 9.12086408,10.0245786 9.12086408,11.1400009 L9.12086408,14.1789685 C9.12086408,15.2943908 10.0289342,16.2020666 11.1448411,16.2020666 L14.1851292,16.2020666 C15.3010361,16.2020666 16.2091062,15.2943908 16.2091062,14.1789685 L16.2091062,11.1400009 C16.2091062,10.0245786 15.3010361,9.11690287 14.1851292,9.11690287 Z M15.6356641,14.1789685 C15.6356641,14.9784505 14.9851386,15.6290535 14.1849491,15.6290535 L11.1448411,15.6290535 C10.3450118,15.6290535 9.69430624,14.9786305 9.69430624,14.1789685 L9.69430624,11.1400009 C9.69430624,10.3403389 10.3448317,9.69009598 11.1448411,9.69009598 L14.1851292,9.69009598 C14.9851386,9.69009598 15.6358442,10.3401589 15.6358442,11.1400009 L15.6358442,14.1789685 L15.6356641,14.1789685 Z" id="Shape"></path>
                            </g>
                        </g>
                    </g>
                </g>
            </g>
        </g>
    </g>
</svg>