<?xml version="1.0" encoding="UTF-8"?>
<svg width="75px" height="74px" viewBox="0 0 75 74" version="1.1" xmlns="http://www.w3.org/2000/svg" xmlns:xlink="http://www.w3.org/1999/xlink">
    <title>135</title>
    <defs>
        <filter x="-43.7%" y="-20.4%" width="188.5%" height="143.1%" filterUnits="objectBoundingBox" id="filter-1">
            <feOffset dx="0" dy="11" in="SourceAlpha" result="shadowOffsetOuter1"></feOffset>
            <feGaussianBlur stdDeviation="31.5" in="shadowOffsetOuter1" result="shadowBlurOuter1"></feGaussianBlur>
            <feColorMatrix values="0 0 0 0 0   0 0 0 0 0   0 0 0 0 0  0 0 0 0.1 0" type="matrix" in="shadowBlurOuter1" result="shadowMatrixOuter1"></feColorMatrix>
            <feMerge>
                <feMergeNode in="shadowMatrixOuter1"></feMergeNode>
                <feMergeNode in="SourceGraphic"></feMergeNode>
            </feMerge>
        </filter>
    </defs>
    <g id="Welcome" stroke="none" stroke-width="1" fill="none" fill-rule="evenodd">
        <g id="Cards" transform="translate(-212.000000, -1640.000000)" fill="#979797" fill-rule="nonzero">
            <g id="iPhone_X-Copy-4" filter="url(#filter-1)" transform="translate(200.000000, 938.000000)">
                <g id="~SCREEN-HERE~" transform="translate(15.775862, 15.733240)">
                    <g id="Group-10" transform="translate(-4.000000, 7.000000)">
                        <g id="Group-9" transform="translate(0.000000, 44.105626)">
                            <path d="M44.3581503,663.339665 L35.9457743,656.610219 C35.6021912,656.335418 35.1486064,656.183697 34.6694772,656.183697 C34.1898878,656.183697 33.7369934,656.335418 33.3931802,656.610219 L24.9808042,663.339665 C24.6006306,663.643817 24.3136594,664.24715 24.3136594,664.74255 L24.3136594,665.655715 C24.3136594,666.241296 24.7766795,666.717524 25.3460193,666.717524 L26.78893,666.717524 C26.9541628,666.717524 27.0885583,666.855754 27.0885583,667.025463 L27.0885583,673.326256 C27.0885583,674.792812 28.2488702,675.986223 29.6747512,675.986223 L39.6639731,675.986223 C41.0900843,675.986223 42.2503962,674.792812 42.2503962,673.326256 L42.2503962,667.025463 C42.2503962,666.855754 42.3847917,666.717524 42.5500245,666.717524 L43.9929351,666.717524 C44.562275,666.717524 45.0252951,666.241059 45.0252951,665.655715 L45.0252951,664.74255 C45.0252951,664.24715 44.7383239,663.643817 44.3581503,663.339665 Z M36.8559356,675.232589 L32.4830189,675.232589 L32.4830189,670.814933 C32.4830189,669.574657 33.4638299,668.566104 34.6694772,668.566104 C35.8751246,668.566104 36.8559356,669.574657 36.8559356,670.814933 L36.8559356,675.232589 Z M44.2925635,665.655952 C44.2925635,665.825898 44.158168,665.964364 43.992705,665.964364 L42.5497944,665.964364 C41.9804545,665.964364 41.5174344,666.440356 41.5174344,667.0257 L41.5174344,673.326493 C41.5174344,674.377414 40.6862074,675.232826 39.663743,675.232826 L37.588207,675.232826 L37.588207,670.814933 C37.588207,669.159259 36.2787713,667.812234 34.669017,667.812234 C33.0592626,667.812234 31.749827,669.159022 31.749827,670.814933 L31.749827,675.232589 L29.6742909,675.232589 C28.6525169,675.232589 27.8208297,674.377414 27.8208297,673.326256 L27.8208297,667.025463 C27.8208297,666.439882 27.3578096,665.964128 26.7884697,665.964128 L25.3455591,665.964128 C25.1803263,665.964128 25.0459307,665.825662 25.0459307,665.655715 L25.0459307,664.74255 C25.0459307,664.480293 25.2288835,664.095429 25.4302467,663.934477 L33.8428528,657.204795 C34.0552622,657.034848 34.3565014,656.93733 34.6692471,656.93733 C34.9819928,656.93733 35.283232,657.034848 35.4958715,657.204795 L43.9084777,663.934477 C44.1091504,664.095429 44.2925635,664.480293 44.2925635,664.74255 L44.2925635,665.655952 L44.2925635,665.655952 Z" id="135"></path>
                        </g>
                    </g>
                </g>
            </g>
        </g>
    </g>
</svg>