<?xml version="1.0" encoding="UTF-8"?>
<svg width="229px" height="229px" viewBox="0 0 229 229" version="1.1" xmlns="http://www.w3.org/2000/svg" xmlns:xlink="http://www.w3.org/1999/xlink">
    <title>160</title>
    <defs>
        <filter x="-43.7%" y="-20.4%" width="188.5%" height="143.1%" filterUnits="objectBoundingBox" id="filter-1">
            <feOffset dx="0" dy="11" in="SourceAlpha" result="shadowOffsetOuter1"></feOffset>
            <feGaussianBlur stdDeviation="31.5" in="shadowOffsetOuter1" result="shadowBlurOuter1"></feGaussianBlur>
            <feColorMatrix values="0 0 0 0 0   0 0 0 0 0   0 0 0 0 0  0 0 0 0.1 0" type="matrix" in="shadowBlurOuter1" result="shadowMatrixOuter1"></feColorMatrix>
            <feMerge>
                <feMergeNode in="shadowMatrixOuter1"></feMergeNode>
                <feMergeNode in="SourceGraphic"></feMergeNode>
            </feMerge>
        </filter>
    </defs>
    <g id="Welcome" stroke="none" stroke-width="1" fill="none" fill-rule="evenodd">
        <g id="Cards" transform="translate(-340.000000, -1557.000000)" fill="#979797" fill-rule="nonzero">
            <g id="iPhone_X-Copy-4" filter="url(#filter-1)" transform="translate(200.000000, 938.000000)">
                <g id="~SCREEN-HERE~" transform="translate(15.775862, 15.733240)">
                    <g id="Group-10" transform="translate(-4.000000, 7.000000)">
                        <g id="Group-9" transform="translate(0.000000, 44.105626)">
                            <g id="160" transform="translate(234.131535, 657.983927)">
                                <path d="M8.55475362,5.49936255 C6.59989005,5.49936255 5.00898109,7.07058041 5.00898109,9.00164817 C5.00898109,10.9327159 6.59989005,12.5037338 8.55475362,12.5037338 C10.5096172,12.5037338 12.1005262,10.9327159 12.1005262,9.00164817 C12.1005262,7.07058041 10.5096172,5.49936255 8.55475362,5.49936255 Z M8.55475362,11.8668455 C6.95533821,11.8668455 5.65405366,10.5812672 5.65405366,9.00164817 C5.65405366,7.42182912 6.95533821,6.13645088 8.55475362,6.13645088 C10.154169,6.13645088 11.4554536,7.42182912 11.4554536,9.00164817 C11.4554536,10.5812672 10.154169,11.8668455 8.55475362,11.8668455 Z" id="Shape"></path>
                                <path d="M15.3988015,7.69446692 L16.4604876,7.08918299 C16.7600362,6.91815928 16.9747229,6.64152092 17.0646482,6.30987493 C17.154371,5.97802892 17.1090033,5.63218096 16.9358362,5.33653997 L15.959012,3.66550826 C15.7860475,3.36966724 15.5059422,3.15743781 15.1699374,3.0686255 C14.8345402,2.98001321 14.4839529,3.02481942 14.1844042,3.19584314 L13.1225155,3.80112707 C12.9781084,3.88373852 12.7186616,3.86353572 12.588837,3.75932127 C12.5768874,3.74971994 12.2963771,3.52568887 11.8909029,3.29445681 C11.490087,3.06522503 11.1490188,2.93560705 11.1348414,2.9302063 C10.9786872,2.87099809 10.8310395,2.65916872 10.8310395,2.49354576 L10.8310395,1.28337795 C10.830837,0.575479796 10.2479425,0 9.5315778,0 L7.57792944,0 C6.86156471,0 6.27867024,0.575479796 6.27867024,1.28317793 L6.27867024,2.49374578 C6.27867024,2.65876867 6.13102255,2.87099809 5.9748684,2.9302063 C5.96069099,2.93560705 5.61962279,3.06562508 5.21880689,3.29445681 C4.81333271,3.52568887 4.53282234,3.74971994 4.52127787,3.75912124 C4.39165575,3.86333569 4.13241152,3.88373852 3.98739677,3.80112707 L2.92510301,3.19544308 C2.6255544,3.0246194 2.27577721,2.97981318 1.93956984,3.06842547 C1.60376754,3.15723778 1.32345971,3.36946721 1.1504952,3.66510821 L0.173671018,5.33613991 C0.000706504694,5.63198093 -0.0448637712,5.97782889 0.0450615732,6.30927485 C0.134986918,6.64132089 0.349673551,6.91795925 0.649019629,7.08878294 L1.71090832,7.69426689 C1.855518,7.77667832 1.96751961,8.00871049 1.94078505,8.17153307 C1.93835463,8.18593507 1.8830627,8.53098291 1.8830627,9.00124812 C1.8830627,9.47151333 1.93835463,9.81616112 1.94078505,9.83056311 C1.96731708,9.99318566 1.85531547,10.2254179 1.71090832,10.3078293 L0.649019629,10.9131132 C0.349471016,11.0839369 0.134986918,11.3607753 0.0450615732,11.6928213 C-0.0448637712,12.0242673 0.000706504694,12.3705153 0.173671018,12.6661563 L1.1504952,14.337188 C1.50898137,14.9496729 2.30473965,15.1601021 2.92550808,14.8068531 L3.98719424,14.2015692 C4.13180391,14.1187577 4.39125068,14.1393606 4.52067027,14.243375 C4.53261981,14.2529763 4.81333271,14.4772074 5.21880689,14.7086395 C5.61982532,14.9378713 5.96089352,15.0676893 5.97507094,15.07289 C6.13122508,15.1320982 6.27887278,15.3441276 6.27887278,15.5093505 L6.27887278,16.7191183 C6.27887278,17.4264164 6.86176724,18.0022962 7.57813198,18.0022962 L9.53178034,18.0022962 C10.2481451,18.0022962 10.8310395,17.4264164 10.8310395,16.7191183 L10.8310395,15.5093505 C10.8310395,15.3443277 10.9786872,15.1320982 11.1348414,15.07289 C11.1490188,15.0676893 11.4904921,14.9376713 11.891308,14.7086395 C12.2969847,14.4772074 12.5779001,14.2529763 12.5894446,14.243375 C12.7190667,14.1393606 12.9789185,14.1191578 13.1233257,14.2015692 L14.1844042,14.8064531 C14.4839529,14.9774768 14.8343376,15.022483 15.1699374,14.9338707 C15.5059422,14.8450584 15.7862501,14.632629 15.959012,14.336988 L16.9358362,12.6659563 C17.1088007,12.3701152 17.154371,12.0244673 17.0646482,11.6930214 C16.9747229,11.3609753 16.7598337,11.0839369 16.4602851,10.9133132 L15.399004,10.3080293 C15.2543943,10.2256179 15.1423927,9.99378575 15.1689247,9.83076314 C15.1715577,9.81636114 15.2266471,9.47151333 15.2266471,9.00144815 C15.2266471,8.53078288 15.1711526,8.1861351 15.1687222,8.1717331 C15.1421902,8.00891052 15.2541918,7.77687835 15.3988015,7.69446692 Z M14.5325611,8.27234705 C14.5327637,8.27554749 14.581777,8.5849904 14.581777,9.00144815 C14.581777,9.41790589 14.5329662,9.72714877 14.5325611,9.72974913 C14.4641045,10.1504075 14.7032978,10.6466763 15.0767715,10.8595058 L16.1382551,11.4645897 C16.2887383,11.5506016 16.3964867,11.6900209 16.442057,11.8578442 C16.4876272,12.0250674 16.4645383,12.1992916 16.3778535,12.3477121 L15.4010293,14.0187438 C15.3139395,14.1675645 15.1729754,14.2737792 15.0032515,14.3189855 C14.8339326,14.3639917 14.657525,14.3411886 14.5068393,14.2553767 L13.4459632,13.6506928 C13.0728946,13.4374632 12.5179499,13.4810693 12.1833628,13.7493065 C12.1809324,13.7517068 11.9277642,13.9531348 11.569278,14.1575631 C11.2144375,14.3599912 10.90699,14.4780075 10.9041545,14.4788076 C10.5019209,14.6312288 10.1865746,15.0840916 10.1865746,15.5095506 L10.1865746,16.7193183 C10.1865746,17.0757677 9.89310199,17.3656079 9.53218541,17.3656079 L7.57853705,17.3656079 C7.21762046,17.3656079 6.92414788,17.0757677 6.92414788,16.7193183 L6.92414788,15.5095506 C6.92414788,15.0840916 6.60900411,14.6310287 6.20656794,14.4786076 C6.20332739,14.4774074 5.89932301,14.3617914 5.54164698,14.1575631 C5.18316081,13.9531348 4.92999261,13.7517068 4.92776473,13.7493065 C4.59297511,13.4810693 4.03782788,13.4372632 3.66536682,13.6506928 L2.94839448,14.0591495 L2.95001476,14.0623499 C2.88479863,14.0959546 2.78211361,14.1541626 2.6038832,14.2555767 C2.29076477,14.4340014 1.88994888,14.3275867 1.70969312,14.0193439 L0.732868937,12.3483122 C0.645981611,12.1994916 0.623095206,12.0252674 0.668665482,11.8580442 C0.714033223,11.690221 0.821984143,11.5508016 0.972264786,11.4647897 C1.17135626,11.351574 1.2665475,11.2975665 1.31616847,11.2675624 L1.31677607,11.2685625 L2.03314081,10.8595058 C2.40661454,10.6466763 2.64540278,10.1502074 2.57714864,9.73014919 C2.57674357,9.72714877 2.52793274,9.41770587 2.52793274,9.00144815 C2.52793274,8.5849904 2.57674357,8.27534747 2.57714864,8.27274711 C2.64580785,7.85208878 2.40681707,7.35581996 2.03314081,7.14299045 C1.37773897,6.76913861 1.31454819,6.73313362 1.31454819,6.73313362 C1.31454819,6.73313362 1.3151558,6.7337337 1.31596593,6.73413376 L0.971252114,6.5375065 C0.82097147,6.45189462 0.71302055,6.31227526 0.667652809,6.14465202 C0.622082533,5.97722881 0.645171473,5.80320468 0.731856264,5.65438404 L1.70868044,3.98335233 C1.79556777,3.83493175 1.93653182,3.72831697 2.10645832,3.68351076 C2.27577721,3.63850452 2.45218481,3.66130768 2.60246546,3.7465195 L3.66475922,4.35220348 C4.03843548,4.56523302 4.59277257,4.521827 4.92715713,4.25338978 C4.92979008,4.25118947 5.18255321,4.05036163 5.54124191,3.84553322 C5.89567739,3.64310516 6.20292232,3.52528882 6.20555527,3.52448871 C6.6077889,3.37206757 6.92313521,2.91960483 6.92313521,2.49374578 L6.92313521,1.28317793 C6.92313521,0.926728501 7.21660779,0.636688284 7.57752437,0.636688284 L9.53117273,0.636688284 C9.89208932,0.636688284 10.1855619,0.926728501 10.1855619,1.28317793 L10.1855619,2.49334573 C10.1855619,2.91920478 10.5009082,3.37206757 10.9029393,3.52428868 C10.9061799,3.52548885 11.2132222,3.64310516 11.5678603,3.8453332 C11.9263464,4.04996157 12.1793121,4.25098945 12.1817425,4.25318975 C12.5159245,4.52162697 13.0712743,4.56523302 13.4441404,4.35220348 L14.5060291,3.74711958 C14.6563098,3.66110765 14.8321098,3.63850452 15.0024413,3.68371079 C15.1721653,3.728517 15.3131293,3.83493175 15.4000167,3.98335233 L16.3768408,5.65438404 C16.4637282,5.80320468 16.4866146,5.97742883 16.4410443,6.14465202 C16.395474,6.31227526 16.2877256,6.45189462 16.1372425,6.5375065 L15.0763664,7.14299045 C14.7028927,7.35581996 14.4639019,7.85208878 14.5325611,8.27234705 Z" id="Shape"></path>
                            </g>
                        </g>
                    </g>
                </g>
            </g>
        </g>
    </g>
</svg>