<?xml version="1.0" encoding="UTF-8"?>
<svg width="60px" height="57px" viewBox="0 0 60 57" version="1.1" xmlns="http://www.w3.org/2000/svg" xmlns:xlink="http://www.w3.org/1999/xlink">
    <title>167</title>
    <defs>
        <filter x="-43.7%" y="-20.4%" width="188.5%" height="143.1%" filterUnits="objectBoundingBox" id="filter-1">
            <feOffset dx="0" dy="11" in="SourceAlpha" result="shadowOffsetOuter1"></feOffset>
            <feGaussianBlur stdDeviation="31.5" in="shadowOffsetOuter1" result="shadowBlurOuter1"></feGaussianBlur>
            <feColorMatrix values="0 0 0 0 0   0 0 0 0 0   0 0 0 0 0  0 0 0 0.1 0" type="matrix" in="shadowBlurOuter1" result="shadowMatrixOuter1"></feColorMatrix>
            <feMerge>
                <feMergeNode in="shadowMatrixOuter1"></feMergeNode>
                <feMergeNode in="SourceGraphic"></feMergeNode>
            </feMerge>
        </filter>
    </defs>
    <g id="Welcome" stroke="none" stroke-width="1" fill="none" fill-rule="evenodd">
        <g id="Cards" transform="translate(-362.000000, -1649.000000)" fill="#979797" fill-rule="nonzero">
            <g id="iPhone_X-Copy-4" filter="url(#filter-1)" transform="translate(200.000000, 938.000000)">
                <g id="~SCREEN-HERE~" transform="translate(15.775862, 15.733240)">
                    <g id="Group-10" transform="translate(-4.000000, 7.000000)">
                        <g id="Group-9" transform="translate(0.000000, 44.105626)">
                            <path d="M173.189674,671.012882 C173.440012,671.250309 173.582491,671.675885 173.543069,671.89743 L173.427605,672.540885 L172.959147,675.154618 C172.876102,675.616236 173.067007,675.820268 173.188073,675.9007 C173.249507,675.941425 173.346561,675.986223 173.477433,675.986223 C173.604503,675.986223 173.76339,675.943869 173.951694,675.814363 L176.096475,674.340524 L176.997771,673.7213 C177.189477,673.589555 177.570287,673.51625 177.796411,673.565731 C177.84884,673.577744 179.097528,673.854267 180.10128,673.854267 C185.066615,673.854267 189.106239,670.2949 189.106239,665.919606 C189.106039,661.543905 185.066415,657.983927 180.10108,657.983927 C175.135746,657.983927 171.096121,661.543905 171.096121,665.919606 C171.096121,667.589332 171.677642,669.186568 172.778248,670.539046 C173.061404,670.887042 173.170264,670.994759 173.189674,671.012882 Z M180.10108,658.632065 C184.715221,658.632065 188.468888,661.901267 188.468888,665.919606 C188.468888,669.937334 184.715221,673.205925 180.10108,673.205925 C179.167566,673.205925 177.945493,672.935511 177.932886,672.932864 C177.534267,672.843676 176.978961,672.952004 176.640775,673.184137 L175.739879,673.803361 L173.595298,675.276996 C173.591095,675.280051 173.587093,675.282901 173.582691,675.285345 C173.583491,675.280865 173.584492,675.275775 173.585492,675.270888 L174.05415,672.657155 L174.169414,672.013496 C174.25286,671.547398 174.018731,670.913106 173.626115,670.540879 C173.625114,670.539657 173.527861,670.44375 173.268918,670.125687 C172.264165,668.890904 171.733072,667.436613 171.733072,665.919606 C171.733272,661.901267 175.486939,658.632065 180.10108,658.632065 Z" id="167"></path>
                        </g>
                    </g>
                </g>
            </g>
        </g>
    </g>
</svg>