<?xml version="1.0" encoding="UTF-8"?>
<svg width="150px" height="153px" viewBox="0 0 150 153" version="1.1" xmlns="http://www.w3.org/2000/svg" xmlns:xlink="http://www.w3.org/1999/xlink">
    <title>35</title>
    <defs>
        <filter x="-41.3%" y="-19.1%" width="182.6%" height="139.8%" filterUnits="objectBoundingBox" id="filter-1">
            <feOffset dx="0" dy="7" in="SourceAlpha" result="shadowOffsetOuter1"></feOffset>
            <feGaussianBlur stdDeviation="21.5" in="shadowOffsetOuter1" result="shadowBlurOuter1"></feGaussianBlur>
            <feColorMatrix values="0 0 0 0 0   0 0 0 0 0   0 0 0 0 0  0 0 0 0.1 0" type="matrix" in="shadowBlurOuter1" result="shadowMatrixOuter1"></feColorMatrix>
            <feMerge>
                <feMergeNode in="shadowMatrixOuter1"></feMergeNode>
                <feMergeNode in="SourceGraphic"></feMergeNode>
            </feMerge>
        </filter>
    </defs>
    <g id="Welcome" stroke="none" stroke-width="1" fill="none" fill-rule="evenodd">
        <g id="Desktop-HD" transform="translate(-413.000000, -2644.000000)" fill="#F0BB75" fill-rule="nonzero">
            <g id="iPhone_X" filter="url(#filter-1)" transform="translate(359.000000, 2271.000000)">
                <g id="~SCREEN-HERE~" transform="translate(8.000000, 8.000000)">
                    <g id="Group-4" transform="translate(-5.056818, -5.026315)">
                        <g id="35" transform="translate(122.276204, 441.153948)">
                            <path d="M1.97755645,8.25551248 L5.3724966,8.25551248 C5.78743503,8.25551248 6.12494644,7.90815961 6.12494644,7.48153933 L6.12494644,1.95345272 C6.12494644,1.52659115 5.78743503,1.17935893 5.3724966,1.17935893 L1.97755645,1.17935893 C1.5625007,1.17935893 1.22498929,1.52659115 1.22498929,1.95345272 L1.22498929,7.48153933 C1.22498929,7.90815961 1.5625007,8.25551248 1.97755645,8.25551248 Z M1.598516,1.95345272 C1.598516,1.73833283 1.7685035,1.56363086 1.97755645,1.56363086 L5.3724966,1.56363086 C5.58154955,1.56363086 5.75141973,1.73833283 5.75141973,1.95345272 L5.75141973,7.48153933 C5.75141973,7.69653858 5.58154955,7.87124054 5.3724966,7.87124054 L1.97755645,7.87124054 C1.76838618,7.87124054 1.598516,7.69653858 1.598516,7.48153933 L1.598516,1.95345272 Z" id="Shape"></path>
                            <ellipse id="Oval" cx="3.67496787" cy="9.43487141" rx="1" ry="1"></ellipse>
                            <path d="M1.35274448,10.6142303 L5.99731163,10.6142303 C6.74313871,10.6142303 7.34993573,10.0195976 7.34993573,9.28886677 L7.34993573,1.32536356 C7.34993573,0.59463277 6.74313871,0 5.99731163,0 L1.35274448,0 C0.60679702,0 0,0.59463277 0,1.32536356 L0,9.28874884 C0,10.0195976 0.60679702,10.6142303 1.35274448,10.6142303 Z M0.383145192,1.32536356 C0.383145192,0.80137439 0.818050495,0.375389946 1.35274448,0.375389946 L5.99731163,0.375389946 C6.53188524,0.375389946 6.96679054,0.801256454 6.96679054,1.32536356 L6.96679054,9.28874884 C6.96679054,9.81250213 6.53200561,10.2387224 5.99731163,10.2387224 L1.35274448,10.2387224 C0.818050495,10.2387224 0.383145192,9.81262007 0.383145192,9.28874884 L0.383145192,1.32536356 Z" id="Shape"></path>
                        </g>
                    </g>
                </g>
            </g>
        </g>
    </g>
</svg>