<?xml version="1.0" encoding="UTF-8"?>
<svg width="155px" height="153px" viewBox="0 0 155 153" version="1.1" xmlns="http://www.w3.org/2000/svg" xmlns:xlink="http://www.w3.org/1999/xlink">
    <title>Group 9</title>
    <defs>
        <filter x="-41.3%" y="-19.1%" width="182.6%" height="139.8%" filterUnits="objectBoundingBox" id="filter-1">
            <feOffset dx="0" dy="7" in="SourceAlpha" result="shadowOffsetOuter1"></feOffset>
            <feGaussianBlur stdDeviation="21.5" in="shadowOffsetOuter1" result="shadowBlurOuter1"></feGaussianBlur>
            <feColorMatrix values="0 0 0 0 0   0 0 0 0 0   0 0 0 0 0  0 0 0 0.1 0" type="matrix" in="shadowBlurOuter1" result="shadowMatrixOuter1"></feColorMatrix>
            <feMerge>
                <feMergeNode in="shadowMatrixOuter1"></feMergeNode>
                <feMergeNode in="SourceGraphic"></feMergeNode>
            </feMerge>
        </filter>
        <polygon id="path-2" points="0 0 12.0271676 0 12.0271676 10.3822368 0 10.3822368"></polygon>
        <polygon id="path-4" points="-4.82242342e-16 0 7.0981541 0 7.0981541 4.08733108 -4.82242342e-16 4.08733108"></polygon>
    </defs>
    <g id="Welcome" stroke="none" stroke-width="1" fill="none" fill-rule="evenodd">
        <g id="Desktop-HD" transform="translate(-330.000000, -2561.000000)">
            <g id="iPhone_X" filter="url(#filter-1)" transform="translate(359.000000, 2271.000000)">
                <g id="~SCREEN-HERE~" transform="translate(8.000000, 8.000000)">
                    <g id="Group-4" transform="translate(-5.056818, -5.026315)">
                        <g id="Group-9" transform="translate(39.422383, 358.230274)">
                            <g id="Group-3">
                                <mask id="mask-3" fill="white">
                                    <use xlink:href="#path-2"></use>
                                </mask>
                                <g id="Clip-2"></g>
                                <path d="M6.01412674,0.329407148 C5.82477062,0.329407148 5.63283546,0.383810095 5.44361508,0.49126938 C3.90283997,1.36575635 2.26161788,2.2969355 0.625146665,3.22245889 C0.49782334,3.2945024 0.329099574,3.41785165 0.332574329,3.6575478 C0.335886532,3.88808702 0.499316471,4.00699247 0.621753186,4.07634276 C1.18154145,4.39306487 1.74092249,4.71019095 2.30030354,5.0274517 C3.3336857,5.61349532 4.40222431,6.21933408 5.45501717,6.8122454 C5.56510162,6.87418935 5.68455208,6.91068241 5.80020183,6.94596353 C5.85110402,6.96144952 5.90390655,6.97760881 5.95440151,6.99551869 L6.00218169,7.01248595 L6.05023335,6.99605734 C6.10127127,6.9786861 6.15448102,6.96320011 6.20592616,6.94825277 C6.32266183,6.91431825 6.44346968,6.8791718 6.55409708,6.81695853 C8.15025377,5.91944457 9.76921464,5.00011557 11.33483,4.11108524 L11.4123371,4.06718583 C11.5893409,3.9667289 11.6908738,3.81456225 11.6908738,3.64973748 C11.6908738,3.48625932 11.5906983,3.33570859 11.4161378,3.23646361 C9.69537254,2.25896116 8.10260933,1.35619543 6.54676717,0.476726018 C6.37397123,0.378962307 6.19479555,0.329407148 6.01412674,0.329407148 L6.01412674,0.329407148 Z M11.175065,7.96386421 C10.8828186,8.1289583 10.7875298,8.63178157 10.7958098,9.04734467 C10.7994748,9.23465779 10.8384319,9.85934905 11.1836166,10.0368319 L11.259902,10.0760182 L11.3310293,10.028483 C11.6124166,9.84009256 11.703769,9.34777283 11.6953532,8.94958096 C11.6916882,8.77021283 11.6536813,8.16881788 11.3224778,7.96642276 L11.2494501,7.92185005 L11.175065,7.96386421 Z M11.2460566,10.3822368 C11.0875133,10.3822368 10.9329064,10.3026523 10.8107412,10.1581613 C10.6513834,9.96977087 10.5524295,9.7304787 10.499627,9.40513831 C10.4312145,8.98405412 10.4614843,8.60067494 10.5920654,8.23345505 C10.6796171,7.98702586 10.7970315,7.81802661 10.9614116,7.70194903 C11.0303671,7.65306718 11.0805906,7.55489948 11.0808621,7.46844728 C11.0837126,6.68970411 11.0830339,5.89803351 11.0822195,5.13235243 L11.0820837,4.93278519 C11.0820837,4.89790805 11.0708174,4.87232251 11.0634875,4.85548991 C11.0613156,4.85050746 11.0584651,4.84404375 11.0549359,4.83502148 L10.994532,4.67908432 L10.5273178,4.94355805 C10.2741643,5.08670244 10.0246757,5.22782691 9.7753229,5.36935537 C9.48959199,5.53135226 9.20358959,5.69267585 8.91745146,5.85399944 C8.23699109,6.23764794 7.53345507,6.6344932 6.8467507,7.03470497 C6.55993387,7.20195364 6.28682669,7.28315407 6.01209065,7.28315407 C5.73667591,7.28315407 5.46139691,7.20154965 5.17037217,7.03362769 C4.09233182,6.41149498 2.99121582,5.78841965 1.92620644,5.18594742 C1.43917436,4.9104315 0.952142282,4.63478093 0.465653161,4.35845705 C0.237475646,4.2289134 0.0805611867,4.0411963 0.0234150037,3.8301829 C-0.0250438735,3.65054544 0.0019682177,3.46565622 0.101736494,3.29571434 C0.178972072,3.16415078 0.300594352,3.04214813 0.427103242,2.96943132 C1.83566842,2.16079347 3.34047266,1.30596697 5.30611132,0.197708926 C5.53876823,0.0664146862 5.77563305,-0.000107728607 6.00991882,-0.000107728607 C6.2448833,-0.000107728607 6.48256255,0.0668186685 6.71657685,0.198786212 C8.34666833,1.11798055 9.98083198,2.04444657 11.5735952,2.95206009 C11.8537608,3.11176775 12.0158333,3.36183278 12.0182766,3.63788733 C12.02072,3.91959764 11.8586474,4.1781463 11.5734594,4.34728021 C11.457674,4.41609186 11.4062288,4.50644923 11.406636,4.64043668 C11.4079934,5.13302574 11.4082649,5.62574945 11.4085364,6.11833851 C11.4086721,6.56137241 11.4089436,7.00454096 11.4100295,7.44757486 C11.4100295,7.49861129 11.4202099,7.62398045 11.5111552,7.68807897 C11.7522279,7.85788619 11.8948898,8.11118308 11.9737542,8.50910562 C12.0686359,8.98782462 12.0374159,9.41267931 11.8781938,9.8080433 C11.8253913,9.93960686 11.7533138,10.0621482 11.66997,10.1626051 C11.5526914,10.3042682 11.4020209,10.3822368 11.2460566,10.3822368 L11.2460566,10.3822368 Z" id="Fill-1" fill="#F0BB75" mask="url(#mask-3)"></path>
                            </g>
                            <g id="Group-6" transform="translate(2.461797, 6.526899)">
                                <mask id="mask-5" fill="white">
                                    <use xlink:href="#path-4"></use>
                                </mask>
                                <g id="Clip-5"></g>
                                <path d="M3.41771752,4.08735801 C2.53473434,4.07591185 1.73115856,3.83042528 1.09359176,3.37756115 C0.280242763,2.79959718 -0.0824522512,1.99594177 0.0156871557,0.988813952 C0.0304827233,0.83583933 0.0437851602,0.680575475 0.0565446405,0.530294068 C0.0661821203,0.416775049 0.0758196,0.303121368 0.0864072539,0.189602348 C0.0972663861,0.0709662199 0.149661699,0.00740634174 0.242100061,0.000538643035 C0.247258149,0.000134660759 0.252280498,0 0.257167107,0 C0.303454158,0 0.342954251,0.0162939518 0.371459473,0.0468619441 C0.40403687,0.0818737414 0.419375394,0.132910169 0.414624523,0.190679634 L0.411638262,0.228249986 C0.39114165,0.481546874 0.369966342,0.743327389 0.34159686,0.99904817 C0.277935197,1.57539622 0.388969824,2.08414456 0.671850216,2.51128849 C0.910343907,2.87137136 1.27344614,3.16789435 1.72179256,3.3688082 C2.33112561,3.64176556 2.94901023,3.78019682 3.55820754,3.78019682 C4.19645304,3.78019682 4.83401983,3.62829949 5.45299037,3.32881396 C6.44578652,2.84834437 6.87960885,2.0119664 6.74224083,0.842707029 C6.7188937,0.645025035 6.69934726,0.434146286 6.68061526,0.179098809 C6.67369256,0.0852402603 6.72554492,0.0161592911 6.81282519,0.00296253669 C6.82382006,0.00134660759 6.83508641,0.000538643035 6.84594554,0.000538643035 C6.89603329,0.000538643035 6.98277061,0.0224883467 6.99091496,0.104900731 C7.00272427,0.22367152 7.01711262,0.343654257 7.03095801,0.459731831 C7.09014028,0.954206137 7.14606481,1.42134431 7.03217966,1.89306095 C6.84689572,2.66076193 6.37153721,3.22997296 5.5789563,3.63341659 C4.9646009,3.94609888 4.29798592,4.08614607 3.41771752,4.08735801" id="Fill-4" fill="#F0BB75" mask="url(#mask-5)"></path>
                            </g>
                            <path d="M5.13738756,3.69309824 C5.11974147,3.69309824 5.10209538,3.69053969 5.08526372,3.68542258 C5.03069658,3.66899397 4.96635622,3.62832642 4.96907101,3.52760017 C4.97327892,3.37597216 5.05119319,3.26797423 5.22969018,3.16644002 C5.40099299,3.06894563 5.69269643,3.00013398 5.9394702,2.99905669 C6.28465487,3.00457778 6.564549,3.03716569 6.80833652,3.17694355 C6.96375785,3.26622364 7.04045047,3.3727403 7.04954499,3.51211418 C7.05578899,3.60556875 7.01669611,3.66266491 6.93009454,3.68676919 C6.91597766,3.69067435 6.90199653,3.69269426 6.88842262,3.69269426 C6.81295165,3.69269426 6.7604206,3.63021167 6.73558033,3.59277598 C6.67354754,3.49918675 6.58450265,3.42620062 6.49722238,3.39751788 C6.34397288,3.34715475 6.18230755,3.32170387 6.01684152,3.32170387 C5.87621576,3.32170387 5.729346,3.34001773 5.57989719,3.37637614 C5.46913404,3.40317363 5.33217324,3.45622997 5.25493766,3.62886506 C5.23376235,3.67626565 5.18028113,3.69309824 5.13738756,3.69309824" id="Fill-7" fill="#F0BB75"></path>
                        </g>
                    </g>
                </g>
            </g>
        </g>
    </g>
</svg>